<svg width="2079" height="2079" xmlns="http://www.w3.org/2000/svg" xmlns:xlink="http://www.w3.org/1999/xlink" xml:space="preserve" overflow="hidden"><defs><linearGradient x1="520" y1="520" x2="2599" y2="2599" gradientUnits="userSpaceOnUse" spreadMethod="reflect" id="fill0"><stop offset="0" stop-color="#E50000"/><stop offset="0.3" stop-color="#E50000"/><stop offset="0.7" stop-color="#860000"/><stop offset="1" stop-color="#860000"/></linearGradient></defs><g transform="translate(-520 -520)"><path d="M1819.38 1689.44 2079.25 1689.44 2079.25 1819.38 1819.38 1819.38ZM909.813 1169.69 909.813 1299.63 1039.75 1299.63 1169.69 1559.5 1039.75 1819.38 909.813 1819.38 909.813 1949.31 1104.72 1949.31 1234.66 1689.44 1364.59 1949.31 1559.5 1949.31 1559.5 1819.38 1429.56 1819.38 1299.63 1559.5 1429.56 1299.63 1559.5 1299.63 1559.5 1169.69 1429.56 1169.69 1364.59 1169.69 1234.66 1429.56 1104.72 1169.69ZM1559.5 520 2599 1559.5 2209.19 1949.31 2209.19 1364.59 2144.22 1299.63 1689.44 1299.63 1689.44 1429.56 2079.25 1429.56 2079.25 1559.5 1754.41 1559.5 1689.44 1624.47 1689.44 1884.34 1754.41 1949.31 2209.19 1949.31 1559.5 2599 520 1559.5Z" fill="url(#fill0)" fill-rule="evenodd"/></g></svg>