<svg width="2728" height="520" xmlns="http://www.w3.org/2000/svg" xmlns:xlink="http://www.w3.org/1999/xlink" xml:space="preserve" overflow="hidden"><defs><clipPath id="clip0"><rect x="260" y="1299" width="2728" height="520"/></clipPath><linearGradient x1="260" y1="1299" x2="780" y2="1819" gradientUnits="userSpaceOnUse" spreadMethod="reflect" id="fill1"><stop offset="0" stop-color="#19C49C"/><stop offset="0.3" stop-color="#19C49C"/><stop offset="0.5" stop-color="#1DB3D1"/><stop offset="0.7" stop-color="#C688EC"/><stop offset="1" stop-color="#C688EC"/></linearGradient></defs><g clip-path="url(#clip0)" transform="translate(-260 -1299)"><path d="M520 1299 780 1559 650 1689 650 1624 455 1624 455 1494 650 1494 650 1429 390 1429 390 1689 650 1689 520 1819 260 1559Z" fill="url(#fill1)" fill-rule="evenodd"/><path d="M1546.16 1539.57 1508.33 1579.52 1508.33 1621.71 1546.16 1661.66 1573.83 1661.66 1611.83 1621.71 1611.83 1579.52 1573.83 1539.57 1546.16 1539.57ZM2397.16 1536.64 2363.98 1579.52 2363.98 1583.65 2450.63 1583.65 2464.38 1571.08 2464.38 1549.21 2450.28 1536.64 2397.16 1536.64ZM2383.23 1512.19 2462.32 1512.19 2491.72 1541.98 2491.72 1585.03 2469.88 1605.7 2363.98 1605.7 2363.98 1622.92 2403.52 1663.38 2483.98 1663.38 2479.85 1689.04 2389.08 1689.04 2333.21 1629.98 2333.21 1571.26 2383.23 1512.19ZM1913.55 1512.19 1999.85 1512.19 2017.39 1531.99 2017.39 1689.04 1984.55 1689.04 1984.55 1540.6 1909.42 1540.6 1913.55 1512.19ZM1533.43 1512.19 1588.96 1512.19 1642.6 1571.26 1642.6 1629.98 1586.56 1689.04 1533.43 1689.04 1477.56 1629.98 1477.56 1571.26 1533.43 1512.19ZM1272.12 1512.19 1305.12 1512.19 1305.12 1639.27 1328.33 1663.55 1388.85 1649.47 1388.85 1512.19 1421.69 1512.19 1421.69 1689.04 1397.79 1689.04 1390.47 1670.29 1316.81 1693 1272.12 1647.37 1272.12 1512.19ZM1805.24 1508.06 1848.91 1551.63C1849.08 1561.44 1849.25 1571.26 1849.42 1581.07L1816.24 1586.07 1816.24 1561.44 1794.24 1537.16 1731.31 1552.29 1731.31 1689.04 1698.48 1689.04 1698.48 1512.19 1722.37 1512.19 1729.59 1533.46 1805.24 1508.06ZM2186.39 1463.8 2186.39 1528.9 2276.47 1528.9 2276.47 1555.24 2186.39 1555.24 2186.39 1627.74 2213.72 1661.66 2276.47 1661.66 2276.47 1689.04 2197.56 1689.04 2154.41 1637.72 2154.41 1555.24 2111.6 1555.24 2111.6 1528.9 2154.41 1528.9 2154.41 1469.66 2186.39 1463.8ZM2766.44 1437.63 2857.39 1437.63 2909.14 1473.79 2909.14 1545.6 2795.05 1660.8 2921 1660.8 2921 1689.04 2766.44 1689.04 2757.16 1655.63 2876.13 1532.17 2876.13 1490.32 2842.95 1467.59 2761.97 1467.59 2766.44 1437.63ZM2616.01 1437.63 2644.9 1437.63 2644.9 1660.8 2710.91 1660.8 2710.91 1689.04 2644.9 1689.04 2611.54 1689.04 2545.01 1689.04 2545.01 1660.8 2611.54 1660.8 2611.54 1469.33 2551.72 1488.77 2551.72 1458.98 2616.01 1437.63ZM932.745 1428.33 1009.42 1428.33 1013.38 1455.71 948.905 1455.71 921.57 1488.6 921.57 1528.9 1008.05 1528.9 1008.05 1555.24 921.57 1555.24 921.57 1689.04 889.593 1689.04 889.593 1555.24 832 1555.24 832 1528.9 889.593 1528.9 889.593 1479.82 932.745 1428.33ZM1045.87 1425.58 1117.39 1425.58 1134.92 1445.38 1134.92 1627.74 1162.26 1660.63 1217.44 1660.63 1213.49 1689.04 1146.1 1689.04 1102.95 1637.72 1102.95 1454.16 1041.91 1454.16 1045.87 1425.58ZM1993.32 1418 2021.51 1444.86 1993.32 1471.9 1964.95 1444.86 1993.32 1418Z" fill-rule="evenodd"/></g></svg>