<svg width="2079" height="520" xmlns="http://www.w3.org/2000/svg" xmlns:xlink="http://www.w3.org/1999/xlink" xml:space="preserve" overflow="hidden"><defs><clipPath id="clip0"><rect x="260" y="1299" width="2079" height="520"/></clipPath><linearGradient x1="260" y1="1299" x2="780" y2="1819" gradientUnits="userSpaceOnUse" spreadMethod="reflect" id="fill1"><stop offset="0" stop-color="#E50000"/><stop offset="0.3" stop-color="#E50000"/><stop offset="0.7" stop-color="#860000"/><stop offset="1" stop-color="#860000"/></linearGradient></defs><g clip-path="url(#clip0)" transform="translate(-260 -1299)"><path d="M585 1591.5 650 1591.5 650 1624 585 1624ZM357.5 1461.5 357.5 1494 390 1494 422.5 1559 390 1624 357.5 1624 357.5 1656.5 406.25 1656.5 438.75 1591.5 471.25 1656.5 520 1656.5 520 1624 487.5 1624 455 1559 487.5 1494 520 1494 520 1461.5 487.5 1461.5 471.25 1461.5 438.75 1526.5 406.25 1461.5ZM520 1299 780 1559 682.5 1656.5 682.5 1510.25 666.25 1494 552.5 1494 552.5 1526.5 650 1526.5 650 1559 568.75 1559 552.5 1575.25 552.5 1640.25 568.75 1656.5 682.5 1656.5 520 1819 260 1559Z" fill="url(#fill1)" fill-rule="evenodd"/><path d="M1116.64 1606.52 1090.73 1623.51 1090.73 1643.18 1120.75 1668.93 1197.95 1648.72 1197.95 1606.52ZM1612.75 1536.08 1545.02 1552.35 1545.02 1664.66 1605.06 1664.66 1642.95 1625.68 1642.95 1561.3ZM2239.75 1533.2 2205.26 1577.75 2205.26 1582.04 2295.32 1582.04 2309.62 1568.98 2309.62 1546.26 2294.96 1533.2ZM2225.27 1507.82 2307.47 1507.82 2338 1538.74 2338 1583.47 2315.33 1604.91 2205.26 1604.91 2205.26 1622.8 2246.36 1664.84 2329.97 1664.84 2325.68 1691.47 2231.35 1691.47 2173.3 1630.13 2173.3 1569.16ZM1737.06 1507.82 1826.73 1507.82 1844.94 1528.37 1844.94 1691.47 1810.84 1691.47 1810.84 1537.31 1732.77 1537.31ZM1087.7 1507.82 1194.73 1507.82 1231.16 1546.26 1231.16 1691.47 1207.59 1691.47 1200.45 1668.93 1108.96 1695.58 1060.03 1655.16 1060.03 1613.14 1104.31 1583.29 1197.95 1583.29 1197.95 1553.95 1179.19 1534.45 1083.41 1534.45ZM1623.47 1503.53 1676.87 1551.64 1676.87 1635.87 1620.43 1691.47 1547.16 1691.47 1547.16 1759.42 1512.7 1763 1512.7 1507.82 1536.45 1507.82 1543.24 1529.46ZM1402.84 1503.53 1448.26 1548.77 1448.79 1579.35 1414.28 1584.53 1414.28 1558.96 1391.4 1533.75 1325.98 1549.49 1325.98 1691.47 1291.88 1691.47 1291.88 1507.82 1316.7 1507.82 1324.2 1529.82ZM2022.35 1457.57 2022.35 1525.17 2115.97 1525.17 2115.97 1552.51 2022.35 1552.51 2022.35 1627.82 2050.76 1663.05 2115.97 1663.05 2115.97 1691.47 2033.96 1691.47 1989.14 1638.19 1989.14 1552.51 1944.66 1552.51 1944.66 1525.17 1989.14 1525.17 1989.14 1463.65ZM848 1430.39 882.995 1430.39 882.995 1471.88 934.818 1539.83 979.135 1472.95 979.135 1430.39 1011.63 1430.39 1011.63 1480.64 953.581 1564.5 1011.63 1640.68 1011.63 1691.47 976.634 1691.47 976.634 1649.62 924.989 1582.03 880.493 1649.26 880.493 1691.47 848 1691.47 848 1641.22 906.047 1557.17 848 1481.17ZM1819.95 1410 1849.23 1437.9 1819.95 1465.98 1790.48 1437.9Z" fill-rule="evenodd"/></g></svg>